<mxfile host="app.diagrams.net" modified="2020-10-22T22:42:46.247Z" agent="5.0 (Macintosh; Intel Mac OS X 10_15_7) AppleWebKit/537.36 (KHTML, like Gecko) Chrome/86.0.4240.80 Safari/537.36" etag="GD98PiuFrX-K4xO9aEd6" version="13.8.1" type="github">
  <diagram id="H_ZOI1ovgbP9l2yRfU3z" name="Page-1">
    <mxGraphModel dx="2580" dy="970" grid="1" gridSize="10" guides="1" tooltips="1" connect="1" arrows="1" fold="1" page="1" pageScale="1" pageWidth="850" pageHeight="1100" math="0" shadow="0">
      <root>
        <mxCell id="0" />
        <mxCell id="1" parent="0" />
        <mxCell id="tYAOIZxFQbOy3QtKaXn4-1" value="Feature Type" style="rounded=1;whiteSpace=wrap;html=1;fillColor=#dae8fc;strokeColor=#6c8ebf;" vertex="1" parent="1">
          <mxGeometry x="-220" y="170" width="120" height="60" as="geometry" />
        </mxCell>
        <mxCell id="tYAOIZxFQbOy3QtKaXn4-2" value="Play Structure" style="rounded=1;whiteSpace=wrap;html=1;glass=0;fillColor=#dae8fc;strokeColor=#6c8ebf;" vertex="1" parent="1">
          <mxGeometry x="425" y="170" width="120" height="60" as="geometry" />
        </mxCell>
        <mxCell id="tYAOIZxFQbOy3QtKaXn4-3" value="Slide" style="rounded=0;whiteSpace=wrap;html=1;" vertex="1" parent="1">
          <mxGeometry x="-450" y="290" width="120" height="60" as="geometry" />
        </mxCell>
        <mxCell id="tYAOIZxFQbOy3QtKaXn4-4" value="Swing" style="rounded=0;whiteSpace=wrap;html=1;glass=0;" vertex="1" parent="1">
          <mxGeometry x="-450" y="360" width="120" height="60" as="geometry" />
        </mxCell>
        <mxCell id="tYAOIZxFQbOy3QtKaXn4-5" value="Chain Ladder" style="rounded=0;whiteSpace=wrap;html=1;glass=0;" vertex="1" parent="1">
          <mxGeometry x="-60" y="290" width="120" height="60" as="geometry" />
        </mxCell>
        <mxCell id="tYAOIZxFQbOy3QtKaXn4-6" value="Sliding Pole" style="rounded=0;whiteSpace=wrap;html=1;glass=0;" vertex="1" parent="1">
          <mxGeometry x="-60" y="360" width="120" height="60" as="geometry" />
        </mxCell>
        <mxCell id="tYAOIZxFQbOy3QtKaXn4-7" value="Suspension Bridge" style="rounded=0;whiteSpace=wrap;html=1;glass=0;" vertex="1" parent="1">
          <mxGeometry x="-450" y="430" width="120" height="60" as="geometry" />
        </mxCell>
        <mxCell id="tYAOIZxFQbOy3QtKaXn4-8" value="Hand Ring" style="rounded=0;whiteSpace=wrap;html=1;glass=0;" vertex="1" parent="1">
          <mxGeometry x="-60" y="430" width="120" height="60" as="geometry" />
        </mxCell>
        <mxCell id="tYAOIZxFQbOy3QtKaXn4-9" value="Tic Tac Toe" style="rounded=0;whiteSpace=wrap;html=1;glass=0;" vertex="1" parent="1">
          <mxGeometry x="-450" y="500" width="120" height="60" as="geometry" />
        </mxCell>
        <mxCell id="tYAOIZxFQbOy3QtKaXn4-10" value="Play Structure" style="rounded=0;whiteSpace=wrap;html=1;glass=0;" vertex="1" parent="1">
          <mxGeometry x="70" y="360" width="120" height="60" as="geometry" />
        </mxCell>
        <mxCell id="tYAOIZxFQbOy3QtKaXn4-11" value="Hand Over Hand Bar" style="rounded=0;whiteSpace=wrap;html=1;glass=0;" vertex="1" parent="1">
          <mxGeometry x="-450" y="570" width="120" height="60" as="geometry" />
        </mxCell>
        <mxCell id="tYAOIZxFQbOy3QtKaXn4-12" value="Stepping Pod" style="rounded=0;whiteSpace=wrap;html=1;glass=0;" vertex="1" parent="1">
          <mxGeometry x="-320" y="290" width="120" height="60" as="geometry" />
        </mxCell>
        <mxCell id="tYAOIZxFQbOy3QtKaXn4-13" value="Climbing Wall" style="rounded=0;whiteSpace=wrap;html=1;glass=0;" vertex="1" parent="1">
          <mxGeometry x="-320" y="360" width="120" height="60" as="geometry" />
        </mxCell>
        <mxCell id="tYAOIZxFQbOy3QtKaXn4-14" value="Chin Up Bar" style="rounded=0;whiteSpace=wrap;html=1;glass=0;" vertex="1" parent="1">
          <mxGeometry x="-320" y="430" width="120" height="60" as="geometry" />
        </mxCell>
        <mxCell id="tYAOIZxFQbOy3QtKaXn4-15" value="Free Standing Climber" style="rounded=0;whiteSpace=wrap;html=1;glass=0;" vertex="1" parent="1">
          <mxGeometry x="-320" y="500" width="120" height="60" as="geometry" />
        </mxCell>
        <mxCell id="tYAOIZxFQbOy3QtKaXn4-16" value="Spinners" style="rounded=0;whiteSpace=wrap;html=1;glass=0;" vertex="1" parent="1">
          <mxGeometry x="-320" y="570" width="120" height="60" as="geometry" />
        </mxCell>
        <mxCell id="tYAOIZxFQbOy3QtKaXn4-17" value="Sandbox" style="rounded=0;whiteSpace=wrap;html=1;glass=0;" vertex="1" parent="1">
          <mxGeometry x="-60" y="500" width="120" height="60" as="geometry" />
        </mxCell>
        <mxCell id="tYAOIZxFQbOy3QtKaXn4-18" value="Rocker" style="rounded=0;whiteSpace=wrap;html=1;glass=0;" vertex="1" parent="1">
          <mxGeometry x="-60" y="570" width="120" height="60" as="geometry" />
        </mxCell>
        <mxCell id="tYAOIZxFQbOy3QtKaXn4-19" value="See Saw" style="rounded=0;whiteSpace=wrap;html=1;glass=0;" vertex="1" parent="1">
          <mxGeometry x="-190" y="290" width="120" height="60" as="geometry" />
        </mxCell>
        <mxCell id="tYAOIZxFQbOy3QtKaXn4-20" value="Roller" style="rounded=0;whiteSpace=wrap;html=1;glass=0;" vertex="1" parent="1">
          <mxGeometry x="-190" y="360" width="120" height="60" as="geometry" />
        </mxCell>
        <mxCell id="tYAOIZxFQbOy3QtKaXn4-21" value="Plastic Climber" style="rounded=0;whiteSpace=wrap;html=1;glass=0;" vertex="1" parent="1">
          <mxGeometry x="-190" y="430" width="120" height="60" as="geometry" />
        </mxCell>
        <mxCell id="tYAOIZxFQbOy3QtKaXn4-22" value="Swing" style="rounded=0;whiteSpace=wrap;html=1;glass=0;" vertex="1" parent="1">
          <mxGeometry x="-190" y="500" width="120" height="60" as="geometry" />
        </mxCell>
        <mxCell id="tYAOIZxFQbOy3QtKaXn4-23" value="Steering Wheel" style="rounded=0;whiteSpace=wrap;html=1;glass=0;" vertex="1" parent="1">
          <mxGeometry x="-190" y="570" width="120" height="60" as="geometry" />
        </mxCell>
        <mxCell id="tYAOIZxFQbOy3QtKaXn4-24" value="Null" style="rounded=0;whiteSpace=wrap;html=1;glass=0;" vertex="1" parent="1">
          <mxGeometry x="70" y="500" width="120" height="60" as="geometry" />
        </mxCell>
        <mxCell id="tYAOIZxFQbOy3QtKaXn4-26" value="" style="endArrow=none;html=1;exitX=1;exitY=0.5;exitDx=0;exitDy=0;movable=0;resizable=0;rotatable=0;deletable=0;editable=0;connectable=0;" edge="1" parent="1" source="tYAOIZxFQbOy3QtKaXn4-10">
          <mxGeometry width="50" height="50" relative="1" as="geometry">
            <mxPoint x="160" y="400" as="sourcePoint" />
            <mxPoint x="380" y="390" as="targetPoint" />
          </mxGeometry>
        </mxCell>
        <mxCell id="tYAOIZxFQbOy3QtKaXn4-27" value="" style="rounded=0;whiteSpace=wrap;html=1;glass=0;" vertex="1" parent="1">
          <mxGeometry x="420" y="260" width="120" height="60" as="geometry" />
        </mxCell>
      </root>
    </mxGraphModel>
  </diagram>
</mxfile>
